<svg xmlns="http://www.w3.org/2000/svg" version="1.1" xmlns:xlink="http://www.w3.org/1999/xlink" xmlns:svgjs="http://svgjs.dev/svgjs" width="2000" height="2250" viewBox="0 0 2000 2250"><g transform="matrix(1,0,0,1,3.410605131648481e-13,0)"><svg viewBox="0 0 320 360" data-background-color="#ffffff" preserveAspectRatio="xMidYMid meet" height="2250" width="2000" xmlns="http://www.w3.org/2000/svg" xmlns:xlink="http://www.w3.org/1999/xlink"><g id="tight-bounds" transform="matrix(1,0,0,1,0,0)"><svg viewBox="0 0 320 360" height="360" width="320"><g><svg></svg></g><g><svg viewBox="0 0 320 360" height="360" width="320"><g><path d="M20.961 227.22l3.726 4.658-1.863-6.056c-0.466-2.795-3.726 0.466-1.863 1.398M25.153 224.425c1.397 2.329 2.795 4.658 2.795 6.987 0 3.261 2.795 4.658 5.123 5.589-3.261-3.726-5.124-13.974-7.918-12.576M204.017 26.929c7.918 0 15.371-0.932 23.756 0.931 20.495 5.124 37.729 15.371 49.374 29.811l32.606 52.169c1.397 13.042 4.192 27.482 3.726 43.319 3.261 0 2.795-4.658 6.521-5.59-3.726 9.316-5.59 20.961-6.521 34.469-2.329-7.453 0-18.632 0.466-24.687-3.261 5.124-5.124 1.397-5.124-0.932 0.466-3.726-1.397-3.261-2.795-4.658-5.124-4.658-8.384-9.782-12.11-17.7 2.329-6.055 2.795-14.905-4.658-19.563-2.329-1.397-5.124-3.726-6.521-7.453-1.863-5.124-5.124-11.179-4.193-19.097 0.466-2.329-6.987 5.124-11.179 1.863-18.166-12.576-36.332-27.016-58.224-39.127-11.645 0-20.029-4.192-24.221-9.316-3.726-4.658-0.932-10.713 4.658-11.179 3.261 0 6.987-0.932 9.782 0.932 0.466-1.863 2.329-4.192 4.657-4.192M157.904 16.215l0.932 0.466c4.658 0.932 6.987 7.453 12.11 5.124 0 3.261 0.466 6.521-0.466 8.85-1.397 3.726-5.59 3.726-8.85 3.726-31.208-1.863-49.374 11.179-68.471 22.358-5.124 3.261-10.713 5.59-14.906 9.782-20.029 18.632-41.921 35.866-47.045 70.335l-4.192 38.195c-0.466 4.192-5.124 8.384-4.192 13.508l3.26 22.824c-3.261-3.261-5.124 0.932-4.192 2.795 0.466 1.397 2.329 6.055 5.124 1.863 3.726 6.987 7.453 20.495 12.576 26.55 15.837 18.632 36.332 35.4 53.101 52.169 4.192-0.932 7.453-0.932 8.384-3.727 1.397 2.795-1.397 5.59-3.726 6.056 7.453 4.658 15.837 8.85 27.016 9.781 14.44 0.932 27.948 3.261 40.524 6.522 6.521-1.863 13.042-2.795 20.029-3.261 2.329 0 3.726-3.726 6.521-4.658l0.466-4.658c2.795 4.192 2.329-1.397 0.466-4.192 3.261 2.795 4.192 5.124 5.589 6.987 0-1.397 3.726-6.521 3.727-0.466l0.931-6.055c1.397-0.932 1.863 5.124 3.261 0.931 1.397-4.192 4.192-0.932 6.987-2.329-0.932 1.863-0.466 5.59 2.794 3.261l3.727-3.261c2.329 5.59 6.055 3.261 7.918 2.329 20.495-13.042 40.99-28.413 60.553-43.784l-0.466 6.055 2.329-7.453c2.329 2.329 4.192 0.466 5.124-0.931 2.795-4.658 6.521-9.316 12.577-13.508-7.453 20.029-16.303 35.866-27.482 48.908l-4.658 5.59c0 3.261-0.932 7.453-4.658 7.918-1.863 0.466-5.59-0.932-8.384 1.863-1.397 1.863 3.261 5.59-0.466 2.795-3.261-2.329-6.521 0-10.248 0.932-2.795 0.932 1.863 3.726 2.795 5.589 0.932 1.863 1.863 3.726 1.398 6.056l-5.124-5.59c-6.055 3.261-9.782 9.316-14.906 13.974-2.329 1.863-1.397 5.124-1.397 7.918-3.261 0-6.987-0.932-8.85 0.932-1.397 1.863-0.932 4.658-0.932 7.453-4.658-0.466-5.124-7.453-9.315-6.056-4.192 0.932-8.85 1.397-12.577 3.727 2.795 5.59-4.658 2.329-3.726 3.26-6.987-4.192-13.042-7.453-20.495-4.658-15.837-5.124-35.4-2.795-49.84-0.931 0-2.329 0.466-4.658-0.466-5.124-0.932 2.329-3.726 1.397-3.26 1.397-8.85-6.055-17.7-9.782-27.016-14.905-8.384 0.932-16.303-3.261-18.632-5.59-6.521-6.055-13.974-2.795-20.029-4.192-13.042-3.261-17.7-16.769-19.098-26.084-0.932-4.658-4.658-6.521-6.055-6.056-6.055-19.563-15.371-37.263-22.824-55.429-1.863-4.658-1.397-9.316-1.397-14.44 2.329 0.932 4.658 0.466 4.192-2.794-2.329-15.371-7.918-27.016-13.974-38.195 3.261-15.837 3.726-34.469 11.179-48.443 6.521-12.576 18.632-19.098 27.016-29.811 2.795-3.726 2.795-8.85 5.59-12.11 9.316-9.316 18.632-19.098 28.879-27.482 4.658-3.726 10.247 0 17.234-1.397 2.329-8.384 11.645-15.837 20.495-13.508 3.726 0.932 11.179-8.85 13.508-9.782 3.726-1.397 1.863 3.726 1.863 6.987 8.85-6.987 20.961-10.713 32.14-14.906" fill="#000000" fill-rule="nonzero" stroke="none" stroke-width="1" stroke-linecap="butt" stroke-linejoin="miter" stroke-miterlimit="10" stroke-dasharray="" stroke-dashoffset="0" font-family="none" font-weight="none" font-size="none" text-anchor="none" style="mix-blend-mode: normal" data-fill-palette-color="tertiary"></path></g><g transform="matrix(1,0,0,1,64,164.17786370227162)"><svg viewBox="0 0 192 31.644272595456737" height="31.644272595456737" width="192"><g><svg viewBox="0 0 192 31.644272595456737" height="31.644272595456737" width="192"><g><svg viewBox="0 0 192 31.644272595456737" height="31.644272595456737" width="192"><g><svg viewBox="0 0 192 31.644272595456737" height="31.644272595456737" width="192"><g id="textblocktransform"><svg viewBox="0 0 192 31.644272595456737" height="31.644272595456737" width="192" id="textblock"><g><svg viewBox="0 0 192 31.644272595456737" height="31.644272595456737" width="192"><g transform="matrix(1,0,0,1,0,0)"><svg width="192" viewBox="0.5 -34.1 206.88 34.1" height="31.644272595456737" data-palette-color="#578edf"><path d="M17.5-0.45L9.5-0.45 9.5-25.35 0.5-25.35 0.5-32.1 26.5-32.1 26.5-25.35 17.5-25.35 17.5-0.45ZM38.1-9.25L38-0.45 30-0.45 30-24.8 36.5-24.8 37.15-19.8 37.3-19.8Q37.75-22.6 39.45-23.83 41.15-25.05 44.5-25.05L44.5-25.05Q45.85-25.05 46.95-24.93 48.05-24.8 48.8-24.7L48.8-24.7 48.8-16.9 48.7-16.8Q47.9-17 46.87-17.15 45.85-17.3 44.55-17.3L44.55-17.3Q42.7-17.3 41.22-16.7 39.75-16.1 38.92-14.38 38.1-12.65 38.1-9.25L38.1-9.25 38.1-9.25ZM61.55-25.05L61.55-25.05Q66.34-25.05 69.3-24.05 72.25-23.05 73.62-20.38 75-17.7 75-12.65L75-12.65 75-0.45 67.75-0.45 67.5-2.75 67.34-2.75Q66.4-1.5 64.4-0.75 62.4 0 59.2 0L59.2 0Q50.55 0 50.55-8.1L50.55-8.1Q50.55-11.55 52.82-13.53 55.09-15.5 60-15.5L60-15.5 67.4-15.5Q67.05-17.6 65.59-18.32 64.15-19.05 60.65-19.05L60.65-19.05Q58.45-19.05 56.32-18.73 54.2-18.4 52.59-18L52.59-18 52.45-18.1 52.5-23.9Q53.5-24.2 55.05-24.48 56.59-24.75 58.32-24.9 60.05-25.05 61.55-25.05ZM61.25-5.9L61.25-5.9Q64.34-5.9 65.9-6.68 67.45-7.45 67.5-9.15L67.5-9.15 67.5-10.4 61.84-10.4Q59.65-10.4 58.77-9.78 57.9-9.15 57.9-8.1L57.9-8.1Q57.9-6.85 58.8-6.38 59.7-5.9 61.25-5.9ZM103.19-24.8L103.19-24.65 95.24-0.45 85.24-0.45 77.74-24.7 77.74-24.8 86.74-24.8Q87.79-20.9 88.72-16.35 89.64-11.8 90.39-7.6L90.39-7.6 90.59-7.6Q91.34-11.8 92.27-16.35 93.19-20.9 94.24-24.8L94.24-24.8 103.19-24.8ZM128.14-6.8L128.14-1.25Q126.74-0.75 124.27-0.38 121.79 0 118.39 0L118.39 0Q114.09 0 111.07-1.13 108.04-2.25 106.49-4.98 104.94-7.7 104.94-12.55L104.94-12.55Q104.94-19.15 107.97-22.1 110.99-25.05 117.34-25.05L117.34-25.05Q121.89-25.05 124.52-23.75 127.14-22.45 128.27-20.08 129.39-17.7 129.39-14.45L129.39-14.45Q129.39-13.5 129.31-12.4 129.24-11.3 129.04-10.25L129.04-10.25 128.84-10.05 112.39-10.05Q112.74-7.85 114.47-7.15 116.19-6.45 120.09-6.45L120.09-6.45Q122.69-6.45 124.42-6.58 126.14-6.7 127.94-6.95L127.94-6.95 128.14-6.8ZM112.24-15.3L122.44-15.3Q122.44-16.5 122.07-17.38 121.69-18.25 120.59-18.73 119.49-19.2 117.34-19.2L117.34-19.2Q114.19-19.2 113.22-18.13 112.24-17.05 112.24-15.3L112.24-15.3ZM141.64-34.1L141.64-0.45 133.64-0.45 133.64-34.1 141.64-34.1ZM155.64-34.1L155.64-0.45 147.64-0.45 147.64-34.1 155.64-34.1ZM183.08-6.8L183.08-1.25Q181.68-0.75 179.21-0.38 176.73 0 173.33 0L173.33 0Q169.03 0 166.01-1.13 162.98-2.25 161.43-4.98 159.88-7.7 159.88-12.55L159.88-12.55Q159.88-19.15 162.91-22.1 165.93-25.05 172.28-25.05L172.28-25.05Q176.83-25.05 179.46-23.75 182.08-22.45 183.21-20.08 184.33-17.7 184.33-14.45L184.33-14.45Q184.33-13.5 184.26-12.4 184.18-11.3 183.98-10.25L183.98-10.25 183.78-10.05 167.33-10.05Q167.68-7.85 169.41-7.15 171.13-6.45 175.03-6.45L175.03-6.45Q177.63-6.45 179.36-6.58 181.08-6.7 182.88-6.95L182.88-6.95 183.08-6.8ZM167.18-15.3L177.38-15.3Q177.38-16.5 177.01-17.38 176.63-18.25 175.53-18.73 174.43-19.2 172.28-19.2L172.28-19.2Q169.13-19.2 168.16-18.13 167.18-17.05 167.18-15.3L167.18-15.3ZM196.68-9.25L196.58-0.45 188.58-0.45 188.58-24.8 195.08-24.8 195.73-19.8 195.88-19.8Q196.33-22.6 198.03-23.83 199.73-25.05 203.08-25.05L203.08-25.05Q204.43-25.05 205.53-24.93 206.63-24.8 207.38-24.7L207.38-24.7 207.38-16.9 207.28-16.8Q206.48-17 205.46-17.15 204.43-17.3 203.13-17.3L203.13-17.3Q201.28-17.3 199.81-16.7 198.33-16.1 197.51-14.38 196.68-12.65 196.68-9.25L196.68-9.25 196.68-9.25Z" opacity="1" transform="matrix(1,0,0,1,0,0)" fill="#578edf" class="wordmark-text-0" data-fill-palette-color="primary" id="text-0"></path></svg></g></svg></g></svg></g></svg></g></svg></g></svg></g></svg></g></svg></g><defs></defs></svg><rect width="320" height="360" fill="none" stroke="none" visibility="hidden"></rect></g></svg></g></svg>